<svg width="36" height="41" viewBox="0 0 36 41" fill="none" xmlns="http://www.w3.org/2000/svg">
<g clip-path="url(#clip0_464_422)">
<path d="M10.6667 2.87496V10.7083H36.125L30.25 30.2916H6.75V4.83329H2.83333C2.31395 4.83329 1.81584 4.62697 1.44858 4.25971C1.08132 3.89245 0.875 3.39434 0.875 2.87496C0.875 2.35558 1.08132 1.85747 1.44858 1.49021C1.81584 1.12295 2.31395 0.916626 2.83333 0.916626H8.70833C9.22772 0.916626 9.72583 1.12295 10.0931 1.49021C10.4603 1.85747 10.6667 2.35558 10.6667 2.87496ZM6.75 37.1458C6.75 37.7268 6.92228 38.2947 7.24506 38.7778C7.56783 39.2608 8.02661 39.6374 8.56337 39.8597C9.10013 40.082 9.69076 40.1402 10.2606 40.0268C10.8304 39.9135 11.3538 39.6337 11.7646 39.2229C12.1754 38.8121 12.4552 38.2887 12.5686 37.7189C12.6819 37.149 12.6237 36.5584 12.4014 36.0217C12.1791 35.4849 11.8026 35.0261 11.3195 34.7034C10.8364 34.3806 10.2685 34.2083 9.6875 34.2083C8.90843 34.2083 8.16126 34.5178 7.61037 35.0687C7.05949 35.6196 6.75 36.3667 6.75 37.1458ZM24.375 37.1458C24.375 37.7268 24.5473 38.2947 24.8701 38.7778C25.1928 39.2608 25.6516 39.6374 26.1884 39.8597C26.7251 40.082 27.3158 40.1402 27.8856 40.0268C28.4554 39.9135 28.9788 39.6337 29.3896 39.2229C29.8004 38.8121 30.0802 38.2887 30.1936 37.7189C30.3069 37.149 30.2487 36.5584 30.0264 36.0217C29.8041 35.4849 29.4276 35.0261 28.9445 34.7034C28.4614 34.3806 27.8935 34.2083 27.3125 34.2083C26.5334 34.2083 25.7863 34.5178 25.2354 35.0687C24.6845 35.6196 24.375 36.3667 24.375 37.1458Z" fill="#E7E7E7"/>
</g>
<defs>
<clipPath id="clip0_464_422">
<rect width="36" height="41" fill="white"/>
</clipPath>
</defs>
</svg>
