<svg width="1920" height="78" viewBox="0 0 1920 78" fill="none" xmlns="http://www.w3.org/2000/svg">
<g clip-path="url(#clip0_56_99)">
<rect width="1920" height="78" fill="#DBDBDB"/>
<path d="M44.7674 46.9955C40.7833 46.9627 37.955 46.2577 36.2827 44.8805C34.5939 43.5197 33.7495 41.2325 33.7495 38.0189V37.8959C33.7495 34.6168 34.5939 32.2804 36.2827 30.8868C37.9714 29.4768 40.7997 28.78 44.7674 28.7964C48.7515 28.8127 51.588 29.5178 53.2768 30.9114C54.9491 32.2886 55.7853 34.6168 55.7853 37.8959V38.0189C55.7853 41.2489 54.9491 43.5524 53.2768 44.9297C51.5716 46.3397 48.7352 47.0283 44.7674 46.9955ZM44.7674 41.7079C46.1282 41.6915 47.071 41.4046 47.5957 40.8472C48.1039 40.3061 48.3581 39.3552 48.3581 37.9943V37.8713C48.3581 36.4777 48.1039 35.5022 47.5957 34.9447C47.071 34.3545 46.1282 34.0676 44.7674 34.084C43.4066 34.1003 42.4638 34.3873 41.9392 34.9447C41.4309 35.5022 41.1768 36.4777 41.1768 37.8713V37.9943C41.1768 39.3716 41.4309 40.3307 41.9392 40.8718C42.4638 41.4456 43.4066 41.7243 44.7674 41.7079ZM65.1274 29.2882H72.53L76.1944 36.7155C76.2928 36.9122 76.4158 37.1827 76.5633 37.527C76.7109 37.8877 76.7929 38.1337 76.8093 38.2648H76.883C76.9158 38.1337 77.006 37.8877 77.1536 37.527C77.2847 37.1663 77.3913 36.8958 77.4733 36.7155L81.1377 29.2882H88.5649V46.5037H81.6788V42.7655C81.6788 40.7816 81.7607 39.2896 81.9247 38.2894H81.9001L78.3341 45.5199H75.3582L71.7922 38.2894H71.743C71.9234 39.3879 72.0135 40.88 72.0135 42.7655V46.5037H65.1274V29.2882ZM103.733 44.1919H97.9039L97.1415 46.5037H89.7881L97.0678 29.2882H104.52L111.799 46.5037H104.446L103.733 44.1919ZM102.454 39.9864L101.691 37.527C101.544 37.0844 101.404 36.6335 101.273 36.1744C101.126 35.6333 101.011 35.1743 100.929 34.7972H100.855C100.658 35.6825 100.404 36.5925 100.093 37.527L99.2812 39.9864H102.454ZM121.601 41.2407H120.15V46.5037H113.017V29.2882H124.699C127.405 29.2882 129.405 29.7719 130.7 30.7392C131.995 31.723 132.643 33.2314 132.643 35.2644V35.3628C132.643 38.0845 131.397 39.8552 128.905 40.675L133.209 46.5037H125.019L121.601 41.2407ZM120.15 36.8384H123.494C124.691 36.8384 125.29 36.3302 125.29 35.3136V35.2398C125.29 34.1905 124.691 33.6659 123.494 33.6659H120.15V36.8384ZM143.805 46.9709C140.378 46.9709 137.894 46.5037 136.353 45.5691C134.812 44.6182 134.041 43.1016 134.041 41.0193V40.8472H141.1V41.0193C141.1 42.0194 142.067 42.5195 144.002 42.5195C145.658 42.5195 146.486 42.167 146.486 41.462V41.3144C146.486 40.7078 145.846 40.2897 144.567 40.0602C144.174 39.9782 143.526 39.888 142.624 39.7896L141.518 39.6913L140.386 39.5437C138.517 39.265 137.116 38.8059 136.181 38.1665C134.902 37.3139 134.263 36.0514 134.263 34.3791V34.2807C134.263 30.6409 137.402 28.8209 143.682 28.8209C150.289 28.8209 153.593 30.8376 153.593 34.8709V35.0431H146.314V34.8463C146.314 33.8134 145.436 33.297 143.682 33.297C142.206 33.297 141.469 33.6413 141.469 34.3299V34.4529C141.469 35.0595 142.108 35.4694 143.387 35.6825C143.78 35.7645 144.428 35.8465 145.33 35.9285L146.436 36.0268L147.592 36.1744C149.445 36.4367 150.839 36.8876 151.773 37.527C153.052 38.3796 153.692 39.6585 153.692 41.3636V41.4866C153.692 43.3065 152.946 44.6592 151.454 45.5445C149.847 46.4955 147.297 46.9709 143.805 46.9709ZM168.356 40.2815V46.5037H160.978V40.2815L153.674 29.2882H161.273L163.708 33.8134C163.937 34.2069 164.273 34.9775 164.716 36.1252C165.109 35.1579 165.462 34.3955 165.774 33.838L168.307 29.2882H175.881L168.356 40.2815Z" fill="#141414"/>
<path d="M10.1491 36.3369L18.3676 16V36.3369L22.008 33.892L19.0295 42.2824L16.3819 61.2857L12.7415 44.7273L0 56.5627L8.54948 40.0042L7.22569 29.8358L10.1491 36.3369Z" fill="#141414"/>
<path d="M291.767 46.9955C287.783 46.9627 284.955 46.2577 283.283 44.8805C281.594 43.5197 280.75 41.2325 280.75 38.0189V37.8959C280.75 34.6168 281.594 32.2804 283.283 30.8868C284.971 29.4768 287.8 28.78 291.767 28.7964C295.752 28.8127 298.588 29.5178 300.277 30.9114C301.949 32.2886 302.785 34.6168 302.785 37.8959V38.0189C302.785 41.2489 301.949 43.5524 300.277 44.9297C298.572 46.3397 295.735 47.0283 291.767 46.9955ZM291.767 41.7079C293.128 41.6915 294.071 41.4046 294.596 40.8472C295.104 40.3061 295.358 39.3552 295.358 37.9943V37.8713C295.358 36.4777 295.104 35.5022 294.596 34.9447C294.071 34.3545 293.128 34.0676 291.767 34.084C290.407 34.1003 289.464 34.3873 288.939 34.9447C288.431 35.5022 288.177 36.4777 288.177 37.8713V37.9943C288.177 39.3716 288.431 40.3307 288.939 40.8718C289.464 41.4456 290.407 41.7243 291.767 41.7079ZM312.127 29.2882H319.53L323.194 36.7155C323.293 36.9122 323.416 37.1827 323.563 37.527C323.711 37.8877 323.793 38.1337 323.809 38.2648H323.883C323.916 38.1337 324.006 37.8877 324.154 37.527C324.285 37.1663 324.391 36.8958 324.473 36.7155L328.138 29.2882H335.565V46.5037H328.679V42.7655C328.679 40.7816 328.761 39.2896 328.925 38.2894H328.9L325.334 45.5199H322.358L318.792 38.2894H318.743C318.923 39.3879 319.014 40.88 319.014 42.7655V46.5037H312.127V29.2882ZM350.733 44.1919H344.904L344.142 46.5037H336.788L344.068 29.2882H351.52L358.799 46.5037H351.446L350.733 44.1919ZM349.454 39.9864L348.691 37.527C348.544 37.0844 348.404 36.6335 348.273 36.1744C348.126 35.6333 348.011 35.1743 347.929 34.7972H347.855C347.658 35.6825 347.404 36.5925 347.093 37.527L346.281 39.9864H349.454ZM368.601 41.2407H367.15V46.5037H360.017V29.2882H371.699C374.405 29.2882 376.405 29.7719 377.7 30.7392C378.995 31.723 379.643 33.2314 379.643 35.2644V35.3628C379.643 38.0845 378.397 39.8552 375.905 40.675L380.209 46.5037H372.019L368.601 41.2407ZM367.15 36.8384H370.494C371.691 36.8384 372.29 36.3302 372.29 35.3136V35.2398C372.29 34.1905 371.691 33.6659 370.494 33.6659H367.15V36.8384ZM390.805 46.9709C387.378 46.9709 384.894 46.5037 383.353 45.5691C381.812 44.6182 381.041 43.1016 381.041 41.0193V40.8472H388.1V41.0193C388.1 42.0194 389.067 42.5195 391.002 42.5195C392.658 42.5195 393.486 42.167 393.486 41.462V41.3144C393.486 40.7078 392.846 40.2897 391.567 40.0602C391.174 39.9782 390.526 39.888 389.624 39.7896L388.518 39.6913L387.386 39.5437C385.517 39.265 384.116 38.8059 383.181 38.1665C381.902 37.3139 381.263 36.0514 381.263 34.3791V34.2807C381.263 30.6409 384.402 28.8209 390.682 28.8209C397.289 28.8209 400.593 30.8376 400.593 34.8709V35.0431H393.314V34.8463C393.314 33.8134 392.436 33.297 390.682 33.297C389.206 33.297 388.469 33.6413 388.469 34.3299V34.4529C388.469 35.0595 389.108 35.4694 390.387 35.6825C390.78 35.7645 391.428 35.8465 392.33 35.9285L393.436 36.0268L394.592 36.1744C396.445 36.4367 397.839 36.8876 398.773 37.527C400.052 38.3796 400.692 39.6585 400.692 41.3636V41.4866C400.692 43.3065 399.946 44.6592 398.454 45.5445C396.847 46.4955 394.297 46.9709 390.805 46.9709ZM415.356 40.2815V46.5037H407.978V40.2815L400.674 29.2882H408.273L410.708 33.8134C410.937 34.2069 411.273 34.9775 411.716 36.1252C412.109 35.1579 412.462 34.3955 412.774 33.838L415.307 29.2882H422.881L415.356 40.2815Z" fill="#141414"/>
<path d="M257.149 36.3369L265.368 16V36.3369L269.008 33.892L266.029 42.2824L263.382 61.2857L259.741 44.7273L247 56.5627L255.549 40.0042L254.226 29.8358L257.149 36.3369Z" fill="#141414"/>
<path d="M538.767 46.9955C534.783 46.9627 531.955 46.2577 530.283 44.8805C528.594 43.5197 527.75 41.2325 527.75 38.0189V37.8959C527.75 34.6168 528.594 32.2804 530.283 30.8868C531.971 29.4768 534.8 28.78 538.767 28.7964C542.752 28.8127 545.588 29.5178 547.277 30.9114C548.949 32.2886 549.785 34.6168 549.785 37.8959V38.0189C549.785 41.2489 548.949 43.5524 547.277 44.9297C545.572 46.3397 542.735 47.0283 538.767 46.9955ZM538.767 41.7079C540.128 41.6915 541.071 41.4046 541.596 40.8472C542.104 40.3061 542.358 39.3552 542.358 37.9943V37.8713C542.358 36.4777 542.104 35.5022 541.596 34.9447C541.071 34.3545 540.128 34.0676 538.767 34.084C537.407 34.1003 536.464 34.3873 535.939 34.9447C535.431 35.5022 535.177 36.4777 535.177 37.8713V37.9943C535.177 39.3716 535.431 40.3307 535.939 40.8718C536.464 41.4456 537.407 41.7243 538.767 41.7079ZM559.127 29.2882H566.53L570.194 36.7155C570.293 36.9122 570.416 37.1827 570.563 37.527C570.711 37.8877 570.793 38.1337 570.809 38.2648H570.883C570.916 38.1337 571.006 37.8877 571.154 37.527C571.285 37.1663 571.391 36.8958 571.473 36.7155L575.138 29.2882H582.565V46.5037H575.679V42.7655C575.679 40.7816 575.761 39.2896 575.925 38.2894H575.9L572.334 45.5199H569.358L565.792 38.2894H565.743C565.923 39.3879 566.014 40.88 566.014 42.7655V46.5037H559.127V29.2882ZM597.733 44.1919H591.904L591.142 46.5037H583.788L591.068 29.2882H598.52L605.799 46.5037H598.446L597.733 44.1919ZM596.454 39.9864L595.691 37.527C595.544 37.0844 595.404 36.6335 595.273 36.1744C595.126 35.6333 595.011 35.1743 594.929 34.7972H594.855C594.658 35.6825 594.404 36.5925 594.093 37.527L593.281 39.9864H596.454ZM615.601 41.2407H614.15V46.5037H607.017V29.2882H618.699C621.405 29.2882 623.405 29.7719 624.7 30.7392C625.995 31.723 626.643 33.2314 626.643 35.2644V35.3628C626.643 38.0845 625.397 39.8552 622.905 40.675L627.209 46.5037H619.019L615.601 41.2407ZM614.15 36.8384H617.494C618.691 36.8384 619.29 36.3302 619.29 35.3136V35.2398C619.29 34.1905 618.691 33.6659 617.494 33.6659H614.15V36.8384ZM637.805 46.9709C634.378 46.9709 631.894 46.5037 630.353 45.5691C628.812 44.6182 628.041 43.1016 628.041 41.0193V40.8472H635.1V41.0193C635.1 42.0194 636.067 42.5195 638.002 42.5195C639.658 42.5195 640.486 42.167 640.486 41.462V41.3144C640.486 40.7078 639.846 40.2897 638.567 40.0602C638.174 39.9782 637.526 39.888 636.624 39.7896L635.518 39.6913L634.386 39.5437C632.517 39.265 631.116 38.8059 630.181 38.1665C628.902 37.3139 628.263 36.0514 628.263 34.3791V34.2807C628.263 30.6409 631.402 28.8209 637.682 28.8209C644.289 28.8209 647.593 30.8376 647.593 34.8709V35.0431H640.314V34.8463C640.314 33.8134 639.436 33.297 637.682 33.297C636.206 33.297 635.469 33.6413 635.469 34.3299V34.4529C635.469 35.0595 636.108 35.4694 637.387 35.6825C637.78 35.7645 638.428 35.8465 639.33 35.9285L640.436 36.0268L641.592 36.1744C643.445 36.4367 644.839 36.8876 645.773 37.527C647.052 38.3796 647.692 39.6585 647.692 41.3636V41.4866C647.692 43.3065 646.946 44.6592 645.454 45.5445C643.847 46.4955 641.297 46.9709 637.805 46.9709ZM662.356 40.2815V46.5037H654.978V40.2815L647.674 29.2882H655.273L657.708 33.8134C657.937 34.2069 658.273 34.9775 658.716 36.1252C659.109 35.1579 659.462 34.3955 659.774 33.838L662.307 29.2882H669.881L662.356 40.2815Z" fill="#141414"/>
<path d="M504.149 36.3369L512.368 16V36.3369L516.008 33.892L513.029 42.2824L510.382 61.2857L506.741 44.7273L494 56.5627L502.549 40.0042L501.226 29.8358L504.149 36.3369Z" fill="#141414"/>
<path d="M785.767 46.9955C781.783 46.9627 778.955 46.2577 777.283 44.8805C775.594 43.5197 774.75 41.2325 774.75 38.0189V37.8959C774.75 34.6168 775.594 32.2804 777.283 30.8868C778.971 29.4768 781.8 28.78 785.767 28.7964C789.752 28.8127 792.588 29.5178 794.277 30.9114C795.949 32.2886 796.785 34.6168 796.785 37.8959V38.0189C796.785 41.2489 795.949 43.5524 794.277 44.9297C792.572 46.3397 789.735 47.0283 785.767 46.9955ZM785.767 41.7079C787.128 41.6915 788.071 41.4046 788.596 40.8472C789.104 40.3061 789.358 39.3552 789.358 37.9943V37.8713C789.358 36.4777 789.104 35.5022 788.596 34.9447C788.071 34.3545 787.128 34.0676 785.767 34.084C784.407 34.1003 783.464 34.3873 782.939 34.9447C782.431 35.5022 782.177 36.4777 782.177 37.8713V37.9943C782.177 39.3716 782.431 40.3307 782.939 40.8718C783.464 41.4456 784.407 41.7243 785.767 41.7079ZM806.127 29.2882H813.53L817.194 36.7155C817.293 36.9122 817.416 37.1827 817.563 37.527C817.711 37.8877 817.793 38.1337 817.809 38.2648H817.883C817.916 38.1337 818.006 37.8877 818.154 37.527C818.285 37.1663 818.391 36.8958 818.473 36.7155L822.138 29.2882H829.565V46.5037H822.679V42.7655C822.679 40.7816 822.761 39.2896 822.925 38.2894H822.9L819.334 45.5199H816.358L812.792 38.2894H812.743C812.923 39.3879 813.014 40.88 813.014 42.7655V46.5037H806.127V29.2882ZM844.733 44.1919H838.904L838.142 46.5037H830.788L838.068 29.2882H845.52L852.799 46.5037H845.446L844.733 44.1919ZM843.454 39.9864L842.691 37.527C842.544 37.0844 842.404 36.6335 842.273 36.1744C842.126 35.6333 842.011 35.1743 841.929 34.7972H841.855C841.658 35.6825 841.404 36.5925 841.093 37.527L840.281 39.9864H843.454ZM862.601 41.2407H861.15V46.5037H854.017V29.2882H865.699C868.405 29.2882 870.405 29.7719 871.7 30.7392C872.995 31.723 873.643 33.2314 873.643 35.2644V35.3628C873.643 38.0845 872.397 39.8552 869.905 40.675L874.209 46.5037H866.019L862.601 41.2407ZM861.15 36.8384H864.494C865.691 36.8384 866.29 36.3302 866.29 35.3136V35.2398C866.29 34.1905 865.691 33.6659 864.494 33.6659H861.15V36.8384ZM884.805 46.9709C881.378 46.9709 878.894 46.5037 877.353 45.5691C875.812 44.6182 875.041 43.1016 875.041 41.0193V40.8472H882.1V41.0193C882.1 42.0194 883.067 42.5195 885.002 42.5195C886.658 42.5195 887.486 42.167 887.486 41.462V41.3144C887.486 40.7078 886.846 40.2897 885.567 40.0602C885.174 39.9782 884.526 39.888 883.624 39.7896L882.518 39.6913L881.386 39.5437C879.517 39.265 878.116 38.8059 877.181 38.1665C875.902 37.3139 875.263 36.0514 875.263 34.3791V34.2807C875.263 30.6409 878.402 28.8209 884.682 28.8209C891.289 28.8209 894.593 30.8376 894.593 34.8709V35.0431H887.314V34.8463C887.314 33.8134 886.436 33.297 884.682 33.297C883.206 33.297 882.469 33.6413 882.469 34.3299V34.4529C882.469 35.0595 883.108 35.4694 884.387 35.6825C884.78 35.7645 885.428 35.8465 886.33 35.9285L887.436 36.0268L888.592 36.1744C890.445 36.4367 891.839 36.8876 892.773 37.527C894.052 38.3796 894.692 39.6585 894.692 41.3636V41.4866C894.692 43.3065 893.946 44.6592 892.454 45.5445C890.847 46.4955 888.297 46.9709 884.805 46.9709ZM909.356 40.2815V46.5037H901.978V40.2815L894.674 29.2882H902.273L904.708 33.8134C904.937 34.2069 905.273 34.9775 905.716 36.1252C906.109 35.1579 906.462 34.3955 906.774 33.838L909.307 29.2882H916.881L909.356 40.2815Z" fill="#141414"/>
<path d="M751.149 36.3369L759.368 16V36.3369L763.008 33.892L760.029 42.2824L757.382 61.2857L753.741 44.7273L741 56.5627L749.549 40.0042L748.226 29.8358L751.149 36.3369Z" fill="#141414"/>
<path d="M1032.77 46.9955C1028.78 46.9627 1025.96 46.2577 1024.28 44.8805C1022.59 43.5197 1021.75 41.2325 1021.75 38.0189V37.8959C1021.75 34.6168 1022.59 32.2804 1024.28 30.8868C1025.97 29.4768 1028.8 28.78 1032.77 28.7964C1036.75 28.8127 1039.59 29.5178 1041.28 30.9114C1042.95 32.2886 1043.79 34.6168 1043.79 37.8959V38.0189C1043.79 41.2489 1042.95 43.5524 1041.28 44.9297C1039.57 46.3397 1036.74 47.0283 1032.77 46.9955ZM1032.77 41.7079C1034.13 41.6915 1035.07 41.4046 1035.6 40.8472C1036.1 40.3061 1036.36 39.3552 1036.36 37.9943V37.8713C1036.36 36.4777 1036.1 35.5022 1035.6 34.9447C1035.07 34.3545 1034.13 34.0676 1032.77 34.084C1031.41 34.1003 1030.46 34.3873 1029.94 34.9447C1029.43 35.5022 1029.18 36.4777 1029.18 37.8713V37.9943C1029.18 39.3716 1029.43 40.3307 1029.94 40.8718C1030.46 41.4456 1031.41 41.7243 1032.77 41.7079ZM1053.13 29.2882H1060.53L1064.19 36.7155C1064.29 36.9122 1064.42 37.1827 1064.56 37.527C1064.71 37.8877 1064.79 38.1337 1064.81 38.2648H1064.88C1064.92 38.1337 1065.01 37.8877 1065.15 37.527C1065.28 37.1663 1065.39 36.8958 1065.47 36.7155L1069.14 29.2882H1076.56V46.5037H1069.68V42.7655C1069.68 40.7816 1069.76 39.2896 1069.92 38.2894H1069.9L1066.33 45.5199H1063.36L1059.79 38.2894H1059.74C1059.92 39.3879 1060.01 40.88 1060.01 42.7655V46.5037H1053.13V29.2882ZM1091.73 44.1919H1085.9L1085.14 46.5037H1077.79L1085.07 29.2882H1092.52L1099.8 46.5037H1092.45L1091.73 44.1919ZM1090.45 39.9864L1089.69 37.527C1089.54 37.0844 1089.4 36.6335 1089.27 36.1744C1089.13 35.6333 1089.01 35.1743 1088.93 34.7972H1088.86C1088.66 35.6825 1088.4 36.5925 1088.09 37.527L1087.28 39.9864H1090.45ZM1109.6 41.2407H1108.15V46.5037H1101.02V29.2882H1112.7C1115.4 29.2882 1117.4 29.7719 1118.7 30.7392C1120 31.723 1120.64 33.2314 1120.64 35.2644V35.3628C1120.64 38.0845 1119.4 39.8552 1116.9 40.675L1121.21 46.5037H1113.02L1109.6 41.2407ZM1108.15 36.8384H1111.49C1112.69 36.8384 1113.29 36.3302 1113.29 35.3136V35.2398C1113.29 34.1905 1112.69 33.6659 1111.49 33.6659H1108.15V36.8384ZM1131.8 46.9709C1128.38 46.9709 1125.89 46.5037 1124.35 45.5691C1122.81 44.6182 1122.04 43.1016 1122.04 41.0193V40.8472H1129.1V41.0193C1129.1 42.0194 1130.07 42.5195 1132 42.5195C1133.66 42.5195 1134.49 42.167 1134.49 41.462V41.3144C1134.49 40.7078 1133.85 40.2897 1132.57 40.0602C1132.17 39.9782 1131.53 39.888 1130.62 39.7896L1129.52 39.6913L1128.39 39.5437C1126.52 39.265 1125.12 38.8059 1124.18 38.1665C1122.9 37.3139 1122.26 36.0514 1122.26 34.3791V34.2807C1122.26 30.6409 1125.4 28.8209 1131.68 28.8209C1138.29 28.8209 1141.59 30.8376 1141.59 34.8709V35.0431H1134.31V34.8463C1134.31 33.8134 1133.44 33.297 1131.68 33.297C1130.21 33.297 1129.47 33.6413 1129.47 34.3299V34.4529C1129.47 35.0595 1130.11 35.4694 1131.39 35.6825C1131.78 35.7645 1132.43 35.8465 1133.33 35.9285L1134.44 36.0268L1135.59 36.1744C1137.45 36.4367 1138.84 36.8876 1139.77 37.527C1141.05 38.3796 1141.69 39.6585 1141.69 41.3636V41.4866C1141.69 43.3065 1140.95 44.6592 1139.45 45.5445C1137.85 46.4955 1135.3 46.9709 1131.8 46.9709ZM1156.36 40.2815V46.5037H1148.98V40.2815L1141.67 29.2882H1149.27L1151.71 33.8134C1151.94 34.2069 1152.27 34.9775 1152.72 36.1252C1153.11 35.1579 1153.46 34.3955 1153.77 33.838L1156.31 29.2882H1163.88L1156.36 40.2815Z" fill="#141414"/>
<path d="M998.149 36.3369L1006.37 16V36.3369L1010.01 33.892L1007.03 42.2824L1004.38 61.2857L1000.74 44.7273L988 56.5627L996.549 40.0042L995.226 29.8358L998.149 36.3369Z" fill="#141414"/>
<path d="M1279.77 46.9955C1275.78 46.9627 1272.96 46.2577 1271.28 44.8805C1269.59 43.5197 1268.75 41.2325 1268.75 38.0189V37.8959C1268.75 34.6168 1269.59 32.2804 1271.28 30.8868C1272.97 29.4768 1275.8 28.78 1279.77 28.7964C1283.75 28.8127 1286.59 29.5178 1288.28 30.9114C1289.95 32.2886 1290.79 34.6168 1290.79 37.8959V38.0189C1290.79 41.2489 1289.95 43.5524 1288.28 44.9297C1286.57 46.3397 1283.74 47.0283 1279.77 46.9955ZM1279.77 41.7079C1281.13 41.6915 1282.07 41.4046 1282.6 40.8472C1283.1 40.3061 1283.36 39.3552 1283.36 37.9943V37.8713C1283.36 36.4777 1283.1 35.5022 1282.6 34.9447C1282.07 34.3545 1281.13 34.0676 1279.77 34.084C1278.41 34.1003 1277.46 34.3873 1276.94 34.9447C1276.43 35.5022 1276.18 36.4777 1276.18 37.8713V37.9943C1276.18 39.3716 1276.43 40.3307 1276.94 40.8718C1277.46 41.4456 1278.41 41.7243 1279.77 41.7079ZM1300.13 29.2882H1307.53L1311.19 36.7155C1311.29 36.9122 1311.42 37.1827 1311.56 37.527C1311.71 37.8877 1311.79 38.1337 1311.81 38.2648H1311.88C1311.92 38.1337 1312.01 37.8877 1312.15 37.527C1312.28 37.1663 1312.39 36.8958 1312.47 36.7155L1316.14 29.2882H1323.56V46.5037H1316.68V42.7655C1316.68 40.7816 1316.76 39.2896 1316.92 38.2894H1316.9L1313.33 45.5199H1310.36L1306.79 38.2894H1306.74C1306.92 39.3879 1307.01 40.88 1307.01 42.7655V46.5037H1300.13V29.2882ZM1338.73 44.1919H1332.9L1332.14 46.5037H1324.79L1332.07 29.2882H1339.52L1346.8 46.5037H1339.45L1338.73 44.1919ZM1337.45 39.9864L1336.69 37.527C1336.54 37.0844 1336.4 36.6335 1336.27 36.1744C1336.13 35.6333 1336.01 35.1743 1335.93 34.7972H1335.86C1335.66 35.6825 1335.4 36.5925 1335.09 37.527L1334.28 39.9864H1337.45ZM1356.6 41.2407H1355.15V46.5037H1348.02V29.2882H1359.7C1362.4 29.2882 1364.4 29.7719 1365.7 30.7392C1367 31.723 1367.64 33.2314 1367.64 35.2644V35.3628C1367.64 38.0845 1366.4 39.8552 1363.9 40.675L1368.21 46.5037H1360.02L1356.6 41.2407ZM1355.15 36.8384H1358.49C1359.69 36.8384 1360.29 36.3302 1360.29 35.3136V35.2398C1360.29 34.1905 1359.69 33.6659 1358.49 33.6659H1355.15V36.8384ZM1378.8 46.9709C1375.38 46.9709 1372.89 46.5037 1371.35 45.5691C1369.81 44.6182 1369.04 43.1016 1369.04 41.0193V40.8472H1376.1V41.0193C1376.1 42.0194 1377.07 42.5195 1379 42.5195C1380.66 42.5195 1381.49 42.167 1381.49 41.462V41.3144C1381.49 40.7078 1380.85 40.2897 1379.57 40.0602C1379.17 39.9782 1378.53 39.888 1377.62 39.7896L1376.52 39.6913L1375.39 39.5437C1373.52 39.265 1372.12 38.8059 1371.18 38.1665C1369.9 37.3139 1369.26 36.0514 1369.26 34.3791V34.2807C1369.26 30.6409 1372.4 28.8209 1378.68 28.8209C1385.29 28.8209 1388.59 30.8376 1388.59 34.8709V35.0431H1381.31V34.8463C1381.31 33.8134 1380.44 33.297 1378.68 33.297C1377.21 33.297 1376.47 33.6413 1376.47 34.3299V34.4529C1376.47 35.0595 1377.11 35.4694 1378.39 35.6825C1378.78 35.7645 1379.43 35.8465 1380.33 35.9285L1381.44 36.0268L1382.59 36.1744C1384.45 36.4367 1385.84 36.8876 1386.77 37.527C1388.05 38.3796 1388.69 39.6585 1388.69 41.3636V41.4866C1388.69 43.3065 1387.95 44.6592 1386.45 45.5445C1384.85 46.4955 1382.3 46.9709 1378.8 46.9709ZM1403.36 40.2815V46.5037H1395.98V40.2815L1388.67 29.2882H1396.27L1398.71 33.8134C1398.94 34.2069 1399.27 34.9775 1399.72 36.1252C1400.11 35.1579 1400.46 34.3955 1400.77 33.838L1403.31 29.2882H1410.88L1403.36 40.2815Z" fill="#141414"/>
<path d="M1245.15 36.3369L1253.37 16V36.3369L1257.01 33.892L1254.03 42.2824L1251.38 61.2857L1247.74 44.7273L1235 56.5627L1243.55 40.0042L1242.23 29.8358L1245.15 36.3369Z" fill="#141414"/>
<path d="M1526.77 46.9955C1522.78 46.9627 1519.96 46.2577 1518.28 44.8805C1516.59 43.5197 1515.75 41.2325 1515.75 38.0189V37.8959C1515.75 34.6168 1516.59 32.2804 1518.28 30.8868C1519.97 29.4768 1522.8 28.78 1526.77 28.7964C1530.75 28.8127 1533.59 29.5178 1535.28 30.9114C1536.95 32.2886 1537.79 34.6168 1537.79 37.8959V38.0189C1537.79 41.2489 1536.95 43.5524 1535.28 44.9297C1533.57 46.3397 1530.74 47.0283 1526.77 46.9955ZM1526.77 41.7079C1528.13 41.6915 1529.07 41.4046 1529.6 40.8472C1530.1 40.3061 1530.36 39.3552 1530.36 37.9943V37.8713C1530.36 36.4777 1530.1 35.5022 1529.6 34.9447C1529.07 34.3545 1528.13 34.0676 1526.77 34.084C1525.41 34.1003 1524.46 34.3873 1523.94 34.9447C1523.43 35.5022 1523.18 36.4777 1523.18 37.8713V37.9943C1523.18 39.3716 1523.43 40.3307 1523.94 40.8718C1524.46 41.4456 1525.41 41.7243 1526.77 41.7079ZM1547.13 29.2882H1554.53L1558.19 36.7155C1558.29 36.9122 1558.42 37.1827 1558.56 37.527C1558.71 37.8877 1558.79 38.1337 1558.81 38.2648H1558.88C1558.92 38.1337 1559.01 37.8877 1559.15 37.527C1559.28 37.1663 1559.39 36.8958 1559.47 36.7155L1563.14 29.2882H1570.56V46.5037H1563.68V42.7655C1563.68 40.7816 1563.76 39.2896 1563.92 38.2894H1563.9L1560.33 45.5199H1557.36L1553.79 38.2894H1553.74C1553.92 39.3879 1554.01 40.88 1554.01 42.7655V46.5037H1547.13V29.2882ZM1585.73 44.1919H1579.9L1579.14 46.5037H1571.79L1579.07 29.2882H1586.52L1593.8 46.5037H1586.45L1585.73 44.1919ZM1584.45 39.9864L1583.69 37.527C1583.54 37.0844 1583.4 36.6335 1583.27 36.1744C1583.13 35.6333 1583.01 35.1743 1582.93 34.7972H1582.86C1582.66 35.6825 1582.4 36.5925 1582.09 37.527L1581.28 39.9864H1584.45ZM1603.6 41.2407H1602.15V46.5037H1595.02V29.2882H1606.7C1609.4 29.2882 1611.4 29.7719 1612.7 30.7392C1614 31.723 1614.64 33.2314 1614.64 35.2644V35.3628C1614.64 38.0845 1613.4 39.8552 1610.9 40.675L1615.21 46.5037H1607.02L1603.6 41.2407ZM1602.15 36.8384H1605.49C1606.69 36.8384 1607.29 36.3302 1607.29 35.3136V35.2398C1607.29 34.1905 1606.69 33.6659 1605.49 33.6659H1602.15V36.8384ZM1625.8 46.9709C1622.38 46.9709 1619.89 46.5037 1618.35 45.5691C1616.81 44.6182 1616.04 43.1016 1616.04 41.0193V40.8472H1623.1V41.0193C1623.1 42.0194 1624.07 42.5195 1626 42.5195C1627.66 42.5195 1628.49 42.167 1628.49 41.462V41.3144C1628.49 40.7078 1627.85 40.2897 1626.57 40.0602C1626.17 39.9782 1625.53 39.888 1624.62 39.7896L1623.52 39.6913L1622.39 39.5437C1620.52 39.265 1619.12 38.8059 1618.18 38.1665C1616.9 37.3139 1616.26 36.0514 1616.26 34.3791V34.2807C1616.26 30.6409 1619.4 28.8209 1625.68 28.8209C1632.29 28.8209 1635.59 30.8376 1635.59 34.8709V35.0431H1628.31V34.8463C1628.31 33.8134 1627.44 33.297 1625.68 33.297C1624.21 33.297 1623.47 33.6413 1623.47 34.3299V34.4529C1623.47 35.0595 1624.11 35.4694 1625.39 35.6825C1625.78 35.7645 1626.43 35.8465 1627.33 35.9285L1628.44 36.0268L1629.59 36.1744C1631.45 36.4367 1632.84 36.8876 1633.77 37.527C1635.05 38.3796 1635.69 39.6585 1635.69 41.3636V41.4866C1635.69 43.3065 1634.95 44.6592 1633.45 45.5445C1631.85 46.4955 1629.3 46.9709 1625.8 46.9709ZM1650.36 40.2815V46.5037H1642.98V40.2815L1635.67 29.2882H1643.27L1645.71 33.8134C1645.94 34.2069 1646.27 34.9775 1646.72 36.1252C1647.11 35.1579 1647.46 34.3955 1647.77 33.838L1650.31 29.2882H1657.88L1650.36 40.2815Z" fill="#141414"/>
<path d="M1492.15 36.3369L1500.37 16V36.3369L1504.01 33.892L1501.03 42.2824L1498.38 61.2857L1494.74 44.7273L1482 56.5627L1490.55 40.0042L1489.23 29.8358L1492.15 36.3369Z" fill="#141414"/>
<path d="M1774.77 46.9955C1770.78 46.9627 1767.96 46.2577 1766.28 44.8805C1764.59 43.5197 1763.75 41.2325 1763.75 38.0189V37.8959C1763.75 34.6168 1764.59 32.2804 1766.28 30.8868C1767.97 29.4768 1770.8 28.78 1774.77 28.7964C1778.75 28.8127 1781.59 29.5178 1783.28 30.9114C1784.95 32.2886 1785.79 34.6168 1785.79 37.8959V38.0189C1785.79 41.2489 1784.95 43.5524 1783.28 44.9297C1781.57 46.3397 1778.74 47.0283 1774.77 46.9955ZM1774.77 41.7079C1776.13 41.6915 1777.07 41.4046 1777.6 40.8472C1778.1 40.3061 1778.36 39.3552 1778.36 37.9943V37.8713C1778.36 36.4777 1778.1 35.5022 1777.6 34.9447C1777.07 34.3545 1776.13 34.0676 1774.77 34.084C1773.41 34.1003 1772.46 34.3873 1771.94 34.9447C1771.43 35.5022 1771.18 36.4777 1771.18 37.8713V37.9943C1771.18 39.3716 1771.43 40.3307 1771.94 40.8718C1772.46 41.4456 1773.41 41.7243 1774.77 41.7079ZM1795.13 29.2882H1802.53L1806.19 36.7155C1806.29 36.9122 1806.42 37.1827 1806.56 37.527C1806.71 37.8877 1806.79 38.1337 1806.81 38.2648H1806.88C1806.92 38.1337 1807.01 37.8877 1807.15 37.527C1807.28 37.1663 1807.39 36.8958 1807.47 36.7155L1811.14 29.2882H1818.56V46.5037H1811.68V42.7655C1811.68 40.7816 1811.76 39.2896 1811.92 38.2894H1811.9L1808.33 45.5199H1805.36L1801.79 38.2894H1801.74C1801.92 39.3879 1802.01 40.88 1802.01 42.7655V46.5037H1795.13V29.2882ZM1833.73 44.1919H1827.9L1827.14 46.5037H1819.79L1827.07 29.2882H1834.52L1841.8 46.5037H1834.45L1833.73 44.1919ZM1832.45 39.9864L1831.69 37.527C1831.54 37.0844 1831.4 36.6335 1831.27 36.1744C1831.13 35.6333 1831.01 35.1743 1830.93 34.7972H1830.86C1830.66 35.6825 1830.4 36.5925 1830.09 37.527L1829.28 39.9864H1832.45ZM1851.6 41.2407H1850.15V46.5037H1843.02V29.2882H1854.7C1857.4 29.2882 1859.4 29.7719 1860.7 30.7392C1862 31.723 1862.64 33.2314 1862.64 35.2644V35.3628C1862.64 38.0845 1861.4 39.8552 1858.9 40.675L1863.21 46.5037H1855.02L1851.6 41.2407ZM1850.15 36.8384H1853.49C1854.69 36.8384 1855.29 36.3302 1855.29 35.3136V35.2398C1855.29 34.1905 1854.69 33.6659 1853.49 33.6659H1850.15V36.8384ZM1873.8 46.9709C1870.38 46.9709 1867.89 46.5037 1866.35 45.5691C1864.81 44.6182 1864.04 43.1016 1864.04 41.0193V40.8472H1871.1V41.0193C1871.1 42.0194 1872.07 42.5195 1874 42.5195C1875.66 42.5195 1876.49 42.167 1876.49 41.462V41.3144C1876.49 40.7078 1875.85 40.2897 1874.57 40.0602C1874.17 39.9782 1873.53 39.888 1872.62 39.7896L1871.52 39.6913L1870.39 39.5437C1868.52 39.265 1867.12 38.8059 1866.18 38.1665C1864.9 37.3139 1864.26 36.0514 1864.26 34.3791V34.2807C1864.26 30.6409 1867.4 28.8209 1873.68 28.8209C1880.29 28.8209 1883.59 30.8376 1883.59 34.8709V35.0431H1876.31V34.8463C1876.31 33.8134 1875.44 33.297 1873.68 33.297C1872.21 33.297 1871.47 33.6413 1871.47 34.3299V34.4529C1871.47 35.0595 1872.11 35.4694 1873.39 35.6825C1873.78 35.7645 1874.43 35.8465 1875.33 35.9285L1876.44 36.0268L1877.59 36.1744C1879.45 36.4367 1880.84 36.8876 1881.77 37.527C1883.05 38.3796 1883.69 39.6585 1883.69 41.3636V41.4866C1883.69 43.3065 1882.95 44.6592 1881.45 45.5445C1879.85 46.4955 1877.3 46.9709 1873.8 46.9709ZM1898.36 40.2815V46.5037H1890.98V40.2815L1883.67 29.2882H1891.27L1893.71 33.8134C1893.94 34.2069 1894.27 34.9775 1894.72 36.1252C1895.11 35.1579 1895.46 34.3955 1895.77 33.838L1898.31 29.2882H1905.88L1898.36 40.2815Z" fill="#141414"/>
<path d="M1740.15 36.3369L1748.37 16V36.3369L1752.01 33.892L1749.03 42.2824L1746.38 61.2857L1742.74 44.7273L1730 56.5627L1738.55 40.0042L1737.23 29.8358L1740.15 36.3369Z" fill="#141414"/>
</g>
<defs>
<clipPath id="clip0_56_99">
<rect width="1920" height="78" fill="white"/>
</clipPath>
</defs>
</svg>
