<svg width="432" height="160" viewBox="0 0 432 160" fill="none" xmlns="http://www.w3.org/2000/svg">
<g style="mix-blend-mode:plus-darker">
<path d="M0.359648 0.964915H68.7447L102.596 69.5772C103.505 71.3947 104.641 73.8939 106.004 77.0746C107.368 80.4067 108.125 82.6787 108.276 83.8904H108.958C109.261 82.6787 110.094 80.4067 111.457 77.0746C112.669 73.7424 113.653 71.2433 114.411 69.5772L148.262 0.964915H216.875V160H153.261V125.467C153.261 107.14 154.018 93.3567 155.532 84.1175H155.305L122.362 150.912H94.8719L61.9289 84.1175H61.4746C63.1406 94.2655 63.9737 108.049 63.9737 125.467V160H0.359648V0.964915ZM356.992 138.644H303.148L296.105 160H228.174L295.423 0.964915H364.262L431.512 160H363.581L356.992 138.644ZM345.178 99.7939L338.135 77.0746C336.772 72.9851 335.485 68.8199 334.273 64.579C332.91 59.5807 331.85 55.3398 331.092 51.8561H330.411C328.593 60.0351 326.245 68.4412 323.368 77.0746L315.87 99.7939H345.178Z" fill="#D0D0D0"/>
</g>
</svg>
