<svg width="582" height="169" viewBox="0 0 582 169" fill="none" xmlns="http://www.w3.org/2000/svg">
<g style="mix-blend-mode:color-dodge">
<path d="M79.65 115.381H66.2456V164H0.359648V4.96492H108.276C133.268 4.96492 151.746 9.43304 163.711 18.3693C175.677 27.457 181.66 41.3915 181.66 60.1728V61.0816C181.66 86.2243 170.149 102.582 147.126 110.155L186.885 164H111.23L79.65 115.381ZM66.2456 74.7132H97.1439C108.201 74.7132 113.729 70.0178 113.729 60.6272V59.9456C113.729 50.2521 108.201 45.4053 97.1439 45.4053H66.2456V74.7132ZM284.773 168.317C253.118 168.317 230.171 164 215.934 155.367C201.696 146.582 194.578 132.572 194.578 113.336V111.746H259.782V113.336C259.782 122.575 268.718 127.195 286.591 127.195C301.888 127.195 309.537 123.938 309.537 117.425V116.062C309.537 110.458 303.63 106.596 291.816 104.475C288.181 103.718 282.198 102.885 273.868 101.976L263.644 101.068L253.193 99.7044C235.927 97.1295 222.977 92.8886 214.343 86.9816C202.529 79.1056 196.622 67.443 196.622 51.9939V51.0851C196.622 17.4605 225.627 0.64825 283.637 0.64825C344.677 0.64825 375.196 19.2781 375.196 56.5377V58.1281H307.947V56.3105C307.947 46.7684 299.844 41.9974 283.637 41.9974C270.006 41.9974 263.19 45.1781 263.19 51.5395V52.6754C263.19 58.2795 269.097 62.0661 280.911 64.0351C284.546 64.7924 290.529 65.5497 298.859 66.307L309.083 67.2158L319.761 68.579C336.876 71.0023 349.75 75.1675 358.384 81.0746C370.198 88.9506 376.105 100.765 376.105 116.517V117.653C376.105 134.465 369.213 146.961 355.43 155.139C340.587 163.924 317.035 168.317 284.773 168.317ZM511.572 106.52V164H443.414V106.52L375.938 4.96492H446.141L468.633 46.7684C470.753 50.4035 473.858 57.5222 477.948 68.1246C481.583 59.1883 484.839 52.1453 487.717 46.9956L511.118 4.96492H581.093L511.572 106.52Z" fill="#D0D0D0"/>
</g>
</svg>
